<mxfile host="Electron" modified="2024-06-04T04:27:06.049Z" agent="Mozilla/5.0 (Macintosh; Intel Mac OS X 10_15_7) AppleWebKit/537.36 (KHTML, like Gecko) draw.io/24.2.5 Chrome/120.0.6099.109 Electron/28.1.0 Safari/537.36" etag="nuI_NnP1br-4Uuhgp7xU" version="24.2.5" type="device">
  <diagram name="Page-1" id="F3YAVjulPUqdYhbqfjdd">
    <mxGraphModel dx="1877" dy="2420" grid="1" gridSize="10" guides="1" tooltips="1" connect="1" arrows="1" fold="1" page="1" pageScale="1" pageWidth="850" pageHeight="1100" math="0" shadow="0">
      <root>
        <mxCell id="0" />
        <mxCell id="1" parent="0" />
        <mxCell id="9zziB1Dtd-V9IfowJO3V-28" value="&lt;h1&gt;Database Design&lt;/h1&gt;" style="text;html=1;align=center;verticalAlign=middle;whiteSpace=wrap;rounded=0;" parent="1" vertex="1">
          <mxGeometry x="332.5" y="-70" width="390" height="10" as="geometry" />
        </mxCell>
        <mxCell id="9zziB1Dtd-V9IfowJO3V-29" value="&lt;h1&gt;UX Flow&lt;/h1&gt;" style="text;html=1;align=center;verticalAlign=middle;whiteSpace=wrap;rounded=0;" parent="1" vertex="1">
          <mxGeometry x="30" y="620" width="175" height="30" as="geometry" />
        </mxCell>
        <mxCell id="9zziB1Dtd-V9IfowJO3V-37" value="" style="edgeStyle=orthogonalEdgeStyle;rounded=0;orthogonalLoop=1;jettySize=auto;html=1;" parent="1" source="9zziB1Dtd-V9IfowJO3V-33" target="9zziB1Dtd-V9IfowJO3V-36" edge="1">
          <mxGeometry relative="1" as="geometry" />
        </mxCell>
        <mxCell id="9zziB1Dtd-V9IfowJO3V-33" value="Actor" style="shape=umlActor;verticalLabelPosition=bottom;verticalAlign=top;html=1;outlineConnect=0;" parent="1" vertex="1">
          <mxGeometry x="35" y="690" width="30" height="60" as="geometry" />
        </mxCell>
        <mxCell id="9zziB1Dtd-V9IfowJO3V-39" value="" style="edgeStyle=orthogonalEdgeStyle;rounded=0;orthogonalLoop=1;jettySize=auto;html=1;" parent="1" source="9zziB1Dtd-V9IfowJO3V-36" target="9zziB1Dtd-V9IfowJO3V-38" edge="1">
          <mxGeometry relative="1" as="geometry" />
        </mxCell>
        <mxCell id="9zziB1Dtd-V9IfowJO3V-36" value="Open Site" style="whiteSpace=wrap;html=1;verticalAlign=top;" parent="1" vertex="1">
          <mxGeometry x="105" y="705" width="120" height="30" as="geometry" />
        </mxCell>
        <mxCell id="9zziB1Dtd-V9IfowJO3V-42" value="" style="edgeStyle=orthogonalEdgeStyle;rounded=0;orthogonalLoop=1;jettySize=auto;html=1;" parent="1" source="9zziB1Dtd-V9IfowJO3V-38" target="9zziB1Dtd-V9IfowJO3V-41" edge="1">
          <mxGeometry relative="1" as="geometry" />
        </mxCell>
        <mxCell id="9zziB1Dtd-V9IfowJO3V-43" value="No" style="edgeLabel;html=1;align=center;verticalAlign=middle;resizable=0;points=[];" parent="9zziB1Dtd-V9IfowJO3V-42" vertex="1" connectable="0">
          <mxGeometry x="0.2533" y="2" relative="1" as="geometry">
            <mxPoint x="2" as="offset" />
          </mxGeometry>
        </mxCell>
        <mxCell id="9zziB1Dtd-V9IfowJO3V-48" value="" style="edgeStyle=orthogonalEdgeStyle;rounded=0;orthogonalLoop=1;jettySize=auto;html=1;" parent="1" source="9zziB1Dtd-V9IfowJO3V-38" target="9zziB1Dtd-V9IfowJO3V-47" edge="1">
          <mxGeometry relative="1" as="geometry" />
        </mxCell>
        <mxCell id="9zziB1Dtd-V9IfowJO3V-72" value="Yes" style="edgeLabel;html=1;align=center;verticalAlign=middle;resizable=0;points=[];" parent="9zziB1Dtd-V9IfowJO3V-48" vertex="1" connectable="0">
          <mxGeometry x="-0.2273" relative="1" as="geometry">
            <mxPoint as="offset" />
          </mxGeometry>
        </mxCell>
        <mxCell id="9zziB1Dtd-V9IfowJO3V-73" style="edgeStyle=orthogonalEdgeStyle;rounded=0;orthogonalLoop=1;jettySize=auto;html=1;exitX=0;exitY=1;exitDx=0;exitDy=0;entryX=1;entryY=0.5;entryDx=0;entryDy=0;" parent="1" source="9zziB1Dtd-V9IfowJO3V-38" target="9zziB1Dtd-V9IfowJO3V-71" edge="1">
          <mxGeometry relative="1" as="geometry">
            <Array as="points">
              <mxPoint x="265" y="740" />
              <mxPoint x="265" y="795" />
            </Array>
          </mxGeometry>
        </mxCell>
        <mxCell id="9zziB1Dtd-V9IfowJO3V-74" value="Yes" style="edgeLabel;html=1;align=center;verticalAlign=middle;resizable=0;points=[];" parent="9zziB1Dtd-V9IfowJO3V-73" vertex="1" connectable="0">
          <mxGeometry x="0.0411" y="1" relative="1" as="geometry">
            <mxPoint as="offset" />
          </mxGeometry>
        </mxCell>
        <mxCell id="9zziB1Dtd-V9IfowJO3V-82" style="edgeStyle=orthogonalEdgeStyle;rounded=0;orthogonalLoop=1;jettySize=auto;html=1;exitX=0.5;exitY=1;exitDx=0;exitDy=0;entryX=0.5;entryY=0;entryDx=0;entryDy=0;" parent="1" source="9zziB1Dtd-V9IfowJO3V-38" target="9zziB1Dtd-V9IfowJO3V-81" edge="1">
          <mxGeometry relative="1" as="geometry">
            <Array as="points">
              <mxPoint x="305" y="890" />
              <mxPoint x="93" y="890" />
              <mxPoint x="93" y="940" />
            </Array>
          </mxGeometry>
        </mxCell>
        <mxCell id="9zziB1Dtd-V9IfowJO3V-83" value="Yes" style="edgeLabel;html=1;align=center;verticalAlign=middle;resizable=0;points=[];" parent="9zziB1Dtd-V9IfowJO3V-82" vertex="1" connectable="0">
          <mxGeometry x="-0.8649" y="-1" relative="1" as="geometry">
            <mxPoint as="offset" />
          </mxGeometry>
        </mxCell>
        <mxCell id="9zziB1Dtd-V9IfowJO3V-92" style="edgeStyle=orthogonalEdgeStyle;rounded=0;orthogonalLoop=1;jettySize=auto;html=1;exitX=1;exitY=1;exitDx=0;exitDy=0;entryX=0.5;entryY=0;entryDx=0;entryDy=0;" parent="1" source="9zziB1Dtd-V9IfowJO3V-38" target="9zziB1Dtd-V9IfowJO3V-91" edge="1">
          <mxGeometry relative="1" as="geometry" />
        </mxCell>
        <mxCell id="9zziB1Dtd-V9IfowJO3V-93" value="Yes" style="edgeLabel;html=1;align=center;verticalAlign=middle;resizable=0;points=[];" parent="9zziB1Dtd-V9IfowJO3V-92" vertex="1" connectable="0">
          <mxGeometry x="-0.6335" y="-2" relative="1" as="geometry">
            <mxPoint as="offset" />
          </mxGeometry>
        </mxCell>
        <mxCell id="9zziB1Dtd-V9IfowJO3V-38" value="&lt;br&gt;Logged&lt;br&gt;In" style="rhombus;whiteSpace=wrap;html=1;verticalAlign=top;" parent="1" vertex="1">
          <mxGeometry x="265" y="680" width="80" height="80" as="geometry" />
        </mxCell>
        <mxCell id="9zziB1Dtd-V9IfowJO3V-46" value="" style="edgeStyle=orthogonalEdgeStyle;rounded=0;orthogonalLoop=1;jettySize=auto;html=1;" parent="1" source="9zziB1Dtd-V9IfowJO3V-41" target="9zziB1Dtd-V9IfowJO3V-45" edge="1">
          <mxGeometry relative="1" as="geometry" />
        </mxCell>
        <mxCell id="9zziB1Dtd-V9IfowJO3V-41" value="Login/Signup Page" style="whiteSpace=wrap;html=1;verticalAlign=top;fillColor=#a20025;strokeColor=#6F0000;fontColor=#ffffff;" parent="1" vertex="1">
          <mxGeometry x="245" y="620" width="120" height="30" as="geometry" />
        </mxCell>
        <mxCell id="9zziB1Dtd-V9IfowJO3V-49" style="edgeStyle=orthogonalEdgeStyle;rounded=0;orthogonalLoop=1;jettySize=auto;html=1;exitX=1;exitY=0.5;exitDx=0;exitDy=0;entryX=0.5;entryY=0;entryDx=0;entryDy=0;dashed=1;" parent="1" source="9zziB1Dtd-V9IfowJO3V-45" target="9zziB1Dtd-V9IfowJO3V-47" edge="1">
          <mxGeometry relative="1" as="geometry" />
        </mxCell>
        <mxCell id="9zziB1Dtd-V9IfowJO3V-50" value="Click Activation&lt;br&gt;Email Link" style="edgeLabel;html=1;align=center;verticalAlign=middle;resizable=0;points=[];" parent="9zziB1Dtd-V9IfowJO3V-49" vertex="1" connectable="0">
          <mxGeometry x="0.1683" y="1" relative="1" as="geometry">
            <mxPoint as="offset" />
          </mxGeometry>
        </mxCell>
        <mxCell id="9zziB1Dtd-V9IfowJO3V-45" value="Send Confirmation Email" style="whiteSpace=wrap;html=1;verticalAlign=top;fillColor=#a20025;strokeColor=#6F0000;fontColor=#ffffff;" parent="1" vertex="1">
          <mxGeometry x="235" y="560" width="140" height="30" as="geometry" />
        </mxCell>
        <mxCell id="9zziB1Dtd-V9IfowJO3V-52" value="" style="edgeStyle=orthogonalEdgeStyle;rounded=0;orthogonalLoop=1;jettySize=auto;html=1;exitX=1;exitY=0.5;exitDx=0;exitDy=0;" parent="1" source="9zziB1Dtd-V9IfowJO3V-47" target="9zziB1Dtd-V9IfowJO3V-51" edge="1">
          <mxGeometry relative="1" as="geometry">
            <mxPoint x="540" y="716.31" as="sourcePoint" />
          </mxGeometry>
        </mxCell>
        <mxCell id="9zziB1Dtd-V9IfowJO3V-47" value="Gallery Page" style="whiteSpace=wrap;html=1;verticalAlign=top;fillColor=#1ba1e2;strokeColor=#006EAF;fontColor=#ffffff;" parent="1" vertex="1">
          <mxGeometry x="440" y="705" width="120" height="30" as="geometry" />
        </mxCell>
        <mxCell id="9zziB1Dtd-V9IfowJO3V-54" value="" style="edgeStyle=orthogonalEdgeStyle;rounded=0;orthogonalLoop=1;jettySize=auto;html=1;" parent="1" source="9zziB1Dtd-V9IfowJO3V-51" target="9zziB1Dtd-V9IfowJO3V-53" edge="1">
          <mxGeometry relative="1" as="geometry" />
        </mxCell>
        <mxCell id="9zziB1Dtd-V9IfowJO3V-51" value="Search By Title &amp;amp;&lt;br&gt;Filter By Tag" style="whiteSpace=wrap;html=1;verticalAlign=top;fillColor=#1ba1e2;strokeColor=#006EAF;fontColor=#ffffff;" parent="1" vertex="1">
          <mxGeometry x="642" y="698.02" width="120" height="45" as="geometry" />
        </mxCell>
        <mxCell id="9zziB1Dtd-V9IfowJO3V-55" value="Refine Search" style="edgeStyle=orthogonalEdgeStyle;rounded=0;orthogonalLoop=1;jettySize=auto;html=1;exitX=0.5;exitY=0;exitDx=0;exitDy=0;entryX=0.5;entryY=0;entryDx=0;entryDy=0;" parent="1" source="9zziB1Dtd-V9IfowJO3V-53" target="9zziB1Dtd-V9IfowJO3V-51" edge="1">
          <mxGeometry relative="1" as="geometry" />
        </mxCell>
        <mxCell id="9zziB1Dtd-V9IfowJO3V-57" value="" style="edgeStyle=orthogonalEdgeStyle;rounded=0;orthogonalLoop=1;jettySize=auto;html=1;" parent="1" source="9zziB1Dtd-V9IfowJO3V-53" target="9zziB1Dtd-V9IfowJO3V-56" edge="1">
          <mxGeometry relative="1" as="geometry" />
        </mxCell>
        <mxCell id="9zziB1Dtd-V9IfowJO3V-53" value="Browse Galleries" style="whiteSpace=wrap;html=1;verticalAlign=top;fillColor=#1ba1e2;strokeColor=#006EAF;fontColor=#ffffff;" parent="1" vertex="1">
          <mxGeometry x="802" y="704.27" width="120" height="32.5" as="geometry" />
        </mxCell>
        <mxCell id="9zziB1Dtd-V9IfowJO3V-59" value="" style="edgeStyle=orthogonalEdgeStyle;rounded=0;orthogonalLoop=1;jettySize=auto;html=1;" parent="1" source="9zziB1Dtd-V9IfowJO3V-56" target="9zziB1Dtd-V9IfowJO3V-58" edge="1">
          <mxGeometry relative="1" as="geometry" />
        </mxCell>
        <mxCell id="9zziB1Dtd-V9IfowJO3V-56" value="Open Gallery" style="whiteSpace=wrap;html=1;verticalAlign=top;fillColor=#1ba1e2;strokeColor=#006EAF;fontColor=#ffffff;" parent="1" vertex="1">
          <mxGeometry x="802" y="780.52" width="120" height="32.5" as="geometry" />
        </mxCell>
        <mxCell id="9zziB1Dtd-V9IfowJO3V-61" value="" style="edgeStyle=orthogonalEdgeStyle;rounded=0;orthogonalLoop=1;jettySize=auto;html=1;" parent="1" source="9zziB1Dtd-V9IfowJO3V-58" target="9zziB1Dtd-V9IfowJO3V-60" edge="1">
          <mxGeometry relative="1" as="geometry" />
        </mxCell>
        <mxCell id="9zziB1Dtd-V9IfowJO3V-63" value="" style="edgeStyle=orthogonalEdgeStyle;rounded=0;orthogonalLoop=1;jettySize=auto;html=1;entryX=0.5;entryY=0;entryDx=0;entryDy=0;exitX=0;exitY=0.5;exitDx=0;exitDy=0;" parent="1" source="9zziB1Dtd-V9IfowJO3V-58" target="9zziB1Dtd-V9IfowJO3V-62" edge="1">
          <mxGeometry relative="1" as="geometry" />
        </mxCell>
        <mxCell id="9zziB1Dtd-V9IfowJO3V-65" value="Directional&lt;br&gt;Buttons" style="edgeLabel;html=1;align=center;verticalAlign=middle;resizable=0;points=[];" parent="9zziB1Dtd-V9IfowJO3V-63" vertex="1" connectable="0">
          <mxGeometry x="0.1714" relative="1" as="geometry">
            <mxPoint as="offset" />
          </mxGeometry>
        </mxCell>
        <mxCell id="9zziB1Dtd-V9IfowJO3V-69" style="edgeStyle=orthogonalEdgeStyle;rounded=0;orthogonalLoop=1;jettySize=auto;html=1;exitX=0;exitY=0.25;exitDx=0;exitDy=0;entryX=0.75;entryY=1;entryDx=0;entryDy=0;" parent="1" source="9zziB1Dtd-V9IfowJO3V-58" target="9zziB1Dtd-V9IfowJO3V-68" edge="1">
          <mxGeometry relative="1" as="geometry">
            <Array as="points">
              <mxPoint x="742" y="850.52" />
              <mxPoint x="742" y="840.52" />
              <mxPoint x="732" y="840.52" />
            </Array>
          </mxGeometry>
        </mxCell>
        <mxCell id="9zziB1Dtd-V9IfowJO3V-58" value="Enlarge Image &amp;amp;&amp;nbsp;&lt;br&gt;Pan/Zoom" style="whiteSpace=wrap;html=1;verticalAlign=top;fillColor=#1ba1e2;strokeColor=#006EAF;fontColor=#ffffff;" parent="1" vertex="1">
          <mxGeometry x="802" y="840.52" width="120" height="40" as="geometry" />
        </mxCell>
        <mxCell id="9zziB1Dtd-V9IfowJO3V-60" value="Download Image" style="whiteSpace=wrap;html=1;verticalAlign=top;fillColor=#1ba1e2;strokeColor=#006EAF;fontColor=#ffffff;" parent="1" vertex="1">
          <mxGeometry x="802" y="900.52" width="120" height="30" as="geometry" />
        </mxCell>
        <mxCell id="9zziB1Dtd-V9IfowJO3V-64" style="edgeStyle=orthogonalEdgeStyle;rounded=0;orthogonalLoop=1;jettySize=auto;html=1;exitX=0.5;exitY=1;exitDx=0;exitDy=0;entryX=0;entryY=0.75;entryDx=0;entryDy=0;" parent="1" source="9zziB1Dtd-V9IfowJO3V-62" target="9zziB1Dtd-V9IfowJO3V-58" edge="1">
          <mxGeometry relative="1" as="geometry">
            <Array as="points">
              <mxPoint x="672" y="960.52" />
              <mxPoint x="782" y="960.52" />
              <mxPoint x="782" y="870.52" />
            </Array>
          </mxGeometry>
        </mxCell>
        <mxCell id="9zziB1Dtd-V9IfowJO3V-62" value="Next/Previous&lt;br&gt;Image" style="whiteSpace=wrap;html=1;verticalAlign=top;fillColor=#1ba1e2;strokeColor=#006EAF;fontColor=#ffffff;" parent="1" vertex="1">
          <mxGeometry x="612" y="890.52" width="120" height="40" as="geometry" />
        </mxCell>
        <mxCell id="9zziB1Dtd-V9IfowJO3V-70" style="edgeStyle=orthogonalEdgeStyle;rounded=0;orthogonalLoop=1;jettySize=auto;html=1;exitX=1;exitY=0.25;exitDx=0;exitDy=0;entryX=0;entryY=0.5;entryDx=0;entryDy=0;" parent="1" source="9zziB1Dtd-V9IfowJO3V-68" target="9zziB1Dtd-V9IfowJO3V-56" edge="1">
          <mxGeometry relative="1" as="geometry">
            <mxPoint x="762" y="797.39" as="sourcePoint" />
            <mxPoint x="792" y="796.14" as="targetPoint" />
            <Array as="points">
              <mxPoint x="762" y="796.52" />
            </Array>
          </mxGeometry>
        </mxCell>
        <mxCell id="9zziB1Dtd-V9IfowJO3V-68" value="Close Image" style="whiteSpace=wrap;html=1;verticalAlign=top;fillColor=#1ba1e2;strokeColor=#006EAF;fontColor=#ffffff;" parent="1" vertex="1">
          <mxGeometry x="642" y="787.52" width="120" height="30" as="geometry" />
        </mxCell>
        <mxCell id="9zziB1Dtd-V9IfowJO3V-76" value="" style="edgeStyle=orthogonalEdgeStyle;rounded=0;orthogonalLoop=1;jettySize=auto;html=1;" parent="1" source="9zziB1Dtd-V9IfowJO3V-71" target="9zziB1Dtd-V9IfowJO3V-75" edge="1">
          <mxGeometry relative="1" as="geometry" />
        </mxCell>
        <mxCell id="9zziB1Dtd-V9IfowJO3V-78" value="" style="edgeStyle=orthogonalEdgeStyle;rounded=0;orthogonalLoop=1;jettySize=auto;html=1;" parent="1" source="9zziB1Dtd-V9IfowJO3V-71" target="9zziB1Dtd-V9IfowJO3V-77" edge="1">
          <mxGeometry relative="1" as="geometry" />
        </mxCell>
        <mxCell id="9zziB1Dtd-V9IfowJO3V-71" value="Livestream Page" style="whiteSpace=wrap;html=1;verticalAlign=top;fillColor=#d80073;strokeColor=#A50040;fontColor=#ffffff;" parent="1" vertex="1">
          <mxGeometry x="125" y="780" width="120" height="30" as="geometry" />
        </mxCell>
        <mxCell id="9zziB1Dtd-V9IfowJO3V-75" value="Watch Stream" style="whiteSpace=wrap;html=1;verticalAlign=top;fillColor=#d80073;strokeColor=#A50040;fontColor=#ffffff;" parent="1" vertex="1">
          <mxGeometry x="125" y="840" width="120" height="30" as="geometry" />
        </mxCell>
        <mxCell id="9zziB1Dtd-V9IfowJO3V-77" value="Chat" style="whiteSpace=wrap;html=1;verticalAlign=top;fillColor=#d80073;strokeColor=#A50040;fontColor=#ffffff;" parent="1" vertex="1">
          <mxGeometry x="12.5" y="780" width="75" height="30" as="geometry" />
        </mxCell>
        <mxCell id="9zziB1Dtd-V9IfowJO3V-85" value="" style="edgeStyle=orthogonalEdgeStyle;rounded=0;orthogonalLoop=1;jettySize=auto;html=1;fillColor=#d5e8d4;strokeColor=#82b366;" parent="1" source="9zziB1Dtd-V9IfowJO3V-81" target="9zziB1Dtd-V9IfowJO3V-84" edge="1">
          <mxGeometry relative="1" as="geometry" />
        </mxCell>
        <mxCell id="9zziB1Dtd-V9IfowJO3V-87" value="" style="edgeStyle=orthogonalEdgeStyle;rounded=0;orthogonalLoop=1;jettySize=auto;html=1;fillColor=#d5e8d4;strokeColor=#82b366;" parent="1" source="9zziB1Dtd-V9IfowJO3V-81" target="9zziB1Dtd-V9IfowJO3V-86" edge="1">
          <mxGeometry relative="1" as="geometry" />
        </mxCell>
        <mxCell id="9zziB1Dtd-V9IfowJO3V-81" value="Subscriptions Page" style="rounded=0;whiteSpace=wrap;html=1;fillColor=#6a00ff;strokeColor=#3700CC;fontColor=#ffffff;" parent="1" vertex="1">
          <mxGeometry x="32.5" y="940" width="120" height="30" as="geometry" />
        </mxCell>
        <mxCell id="9zziB1Dtd-V9IfowJO3V-84" value="View Current Tier" style="rounded=0;whiteSpace=wrap;html=1;fillColor=#6a00ff;strokeColor=#3700CC;fontColor=#ffffff;" parent="1" vertex="1">
          <mxGeometry x="32.5" y="990" width="120" height="30" as="geometry" />
        </mxCell>
        <mxCell id="9zziB1Dtd-V9IfowJO3V-89" value="" style="edgeStyle=orthogonalEdgeStyle;rounded=0;orthogonalLoop=1;jettySize=auto;html=1;fillColor=#d5e8d4;strokeColor=#82b366;" parent="1" source="9zziB1Dtd-V9IfowJO3V-86" target="9zziB1Dtd-V9IfowJO3V-88" edge="1">
          <mxGeometry relative="1" as="geometry" />
        </mxCell>
        <mxCell id="9zziB1Dtd-V9IfowJO3V-86" value="View Available Tiers" style="rounded=0;whiteSpace=wrap;html=1;fillColor=#6a00ff;strokeColor=#3700CC;fontColor=#ffffff;" parent="1" vertex="1">
          <mxGeometry x="187.5" y="940" width="120" height="30" as="geometry" />
        </mxCell>
        <mxCell id="9zziB1Dtd-V9IfowJO3V-90" value="" style="edgeStyle=orthogonalEdgeStyle;rounded=0;orthogonalLoop=1;jettySize=auto;html=1;fillColor=#d5e8d4;strokeColor=#82b366;" parent="1" source="9zziB1Dtd-V9IfowJO3V-88" target="9zziB1Dtd-V9IfowJO3V-84" edge="1">
          <mxGeometry relative="1" as="geometry" />
        </mxCell>
        <mxCell id="9zziB1Dtd-V9IfowJO3V-88" value="Upgrade Tier" style="rounded=0;whiteSpace=wrap;html=1;fillColor=#6a00ff;strokeColor=#3700CC;fontColor=#ffffff;" parent="1" vertex="1">
          <mxGeometry x="187.5" y="990" width="120" height="30" as="geometry" />
        </mxCell>
        <mxCell id="9zziB1Dtd-V9IfowJO3V-95" value="" style="edgeStyle=orthogonalEdgeStyle;rounded=0;orthogonalLoop=1;jettySize=auto;html=1;" parent="1" source="9zziB1Dtd-V9IfowJO3V-91" target="9zziB1Dtd-V9IfowJO3V-94" edge="1">
          <mxGeometry relative="1" as="geometry">
            <Array as="points">
              <mxPoint x="410" y="810" />
              <mxPoint x="360" y="810" />
            </Array>
          </mxGeometry>
        </mxCell>
        <mxCell id="9zziB1Dtd-V9IfowJO3V-100" value="" style="edgeStyle=orthogonalEdgeStyle;rounded=0;orthogonalLoop=1;jettySize=auto;html=1;" parent="1" source="9zziB1Dtd-V9IfowJO3V-91" target="9zziB1Dtd-V9IfowJO3V-99" edge="1">
          <mxGeometry relative="1" as="geometry" />
        </mxCell>
        <mxCell id="9zziB1Dtd-V9IfowJO3V-91" value="Commissions Page" style="rounded=0;whiteSpace=wrap;html=1;fillColor=#60a917;strokeColor=#2D7600;fontColor=#ffffff;" parent="1" vertex="1">
          <mxGeometry x="350" y="770" width="120" height="27.48" as="geometry" />
        </mxCell>
        <mxCell id="9zziB1Dtd-V9IfowJO3V-97" value="" style="edgeStyle=orthogonalEdgeStyle;rounded=0;orthogonalLoop=1;jettySize=auto;html=1;" parent="1" source="9zziB1Dtd-V9IfowJO3V-94" target="9zziB1Dtd-V9IfowJO3V-96" edge="1">
          <mxGeometry relative="1" as="geometry" />
        </mxCell>
        <mxCell id="9zziB1Dtd-V9IfowJO3V-98" value="Yes" style="edgeLabel;html=1;align=center;verticalAlign=middle;resizable=0;points=[];" parent="9zziB1Dtd-V9IfowJO3V-97" vertex="1" connectable="0">
          <mxGeometry x="-0.6109" relative="1" as="geometry">
            <mxPoint x="20" y="2" as="offset" />
          </mxGeometry>
        </mxCell>
        <mxCell id="9zziB1Dtd-V9IfowJO3V-105" value="" style="edgeStyle=orthogonalEdgeStyle;rounded=0;orthogonalLoop=1;jettySize=auto;html=1;entryX=0;entryY=0;entryDx=0;entryDy=0;" parent="1" source="9zziB1Dtd-V9IfowJO3V-94" target="9zziB1Dtd-V9IfowJO3V-110" edge="1">
          <mxGeometry relative="1" as="geometry" />
        </mxCell>
        <mxCell id="9zziB1Dtd-V9IfowJO3V-106" value="No" style="edgeLabel;html=1;align=center;verticalAlign=middle;resizable=0;points=[];" parent="9zziB1Dtd-V9IfowJO3V-105" vertex="1" connectable="0">
          <mxGeometry x="-0.1779" y="-2" relative="1" as="geometry">
            <mxPoint y="-2" as="offset" />
          </mxGeometry>
        </mxCell>
        <mxCell id="9zziB1Dtd-V9IfowJO3V-94" value="Has Existing&lt;br&gt;Commission" style="rhombus;whiteSpace=wrap;html=1;rounded=0;fillColor=#60a917;strokeColor=#2D7600;fontColor=#ffffff;" parent="1" vertex="1">
          <mxGeometry x="310" y="830.52" width="100" height="100" as="geometry" />
        </mxCell>
        <mxCell id="9zziB1Dtd-V9IfowJO3V-101" style="edgeStyle=orthogonalEdgeStyle;rounded=0;orthogonalLoop=1;jettySize=auto;html=1;exitX=1;exitY=0.5;exitDx=0;exitDy=0;entryX=0.75;entryY=1;entryDx=0;entryDy=0;" parent="1" source="9zziB1Dtd-V9IfowJO3V-96" target="9zziB1Dtd-V9IfowJO3V-99" edge="1">
          <mxGeometry relative="1" as="geometry" />
        </mxCell>
        <mxCell id="9zziB1Dtd-V9IfowJO3V-96" value="View Existing&lt;br&gt;Commission Status" style="whiteSpace=wrap;html=1;rounded=0;fillColor=#60a917;strokeColor=#2D7600;fontColor=#ffffff;" parent="1" vertex="1">
          <mxGeometry x="350" y="970" width="120" height="60" as="geometry" />
        </mxCell>
        <mxCell id="9zziB1Dtd-V9IfowJO3V-99" value="View All Commissions" style="rounded=0;whiteSpace=wrap;html=1;fillColor=#60a917;strokeColor=#2D7600;fontColor=#ffffff;" parent="1" vertex="1">
          <mxGeometry x="500" y="770" width="130" height="27.48" as="geometry" />
        </mxCell>
        <mxCell id="9zziB1Dtd-V9IfowJO3V-109" style="edgeStyle=orthogonalEdgeStyle;rounded=0;orthogonalLoop=1;jettySize=auto;html=1;exitX=0.75;exitY=1;exitDx=0;exitDy=0;entryX=1;entryY=0.25;entryDx=0;entryDy=0;" parent="1" source="9zziB1Dtd-V9IfowJO3V-104" target="9zziB1Dtd-V9IfowJO3V-96" edge="1">
          <mxGeometry relative="1" as="geometry">
            <Array as="points">
              <mxPoint x="560" y="985" />
            </Array>
          </mxGeometry>
        </mxCell>
        <mxCell id="9zziB1Dtd-V9IfowJO3V-104" value="Request New&lt;br&gt;Commission" style="whiteSpace=wrap;html=1;fillColor=#60a917;strokeColor=#2D7600;rounded=0;fontColor=#ffffff;" parent="1" vertex="1">
          <mxGeometry x="470" y="817.52" width="120" height="39.48" as="geometry" />
        </mxCell>
        <mxCell id="9zziB1Dtd-V9IfowJO3V-111" style="edgeStyle=orthogonalEdgeStyle;rounded=0;orthogonalLoop=1;jettySize=auto;html=1;exitX=0;exitY=1;exitDx=0;exitDy=0;entryX=0.75;entryY=0;entryDx=0;entryDy=0;" parent="1" source="9zziB1Dtd-V9IfowJO3V-110" target="9zziB1Dtd-V9IfowJO3V-96" edge="1">
          <mxGeometry relative="1" as="geometry">
            <Array as="points">
              <mxPoint x="440" y="930" />
            </Array>
          </mxGeometry>
        </mxCell>
        <mxCell id="9zziB1Dtd-V9IfowJO3V-112" value="No" style="edgeLabel;html=1;align=center;verticalAlign=middle;resizable=0;points=[];" parent="9zziB1Dtd-V9IfowJO3V-111" vertex="1" connectable="0">
          <mxGeometry x="0.0044" relative="1" as="geometry">
            <mxPoint y="5" as="offset" />
          </mxGeometry>
        </mxCell>
        <mxCell id="9zziB1Dtd-V9IfowJO3V-113" style="edgeStyle=orthogonalEdgeStyle;rounded=0;orthogonalLoop=1;jettySize=auto;html=1;exitX=1;exitY=0;exitDx=0;exitDy=0;entryX=0.5;entryY=1;entryDx=0;entryDy=0;" parent="1" source="9zziB1Dtd-V9IfowJO3V-110" target="9zziB1Dtd-V9IfowJO3V-104" edge="1">
          <mxGeometry relative="1" as="geometry" />
        </mxCell>
        <mxCell id="9zziB1Dtd-V9IfowJO3V-114" value="Yes" style="edgeLabel;html=1;align=center;verticalAlign=middle;resizable=0;points=[];" parent="9zziB1Dtd-V9IfowJO3V-113" vertex="1" connectable="0">
          <mxGeometry x="-0.5043" y="1" relative="1" as="geometry">
            <mxPoint x="3" y="-1" as="offset" />
          </mxGeometry>
        </mxCell>
        <mxCell id="9zziB1Dtd-V9IfowJO3V-110" value="Requests&lt;br&gt;Open" style="rhombus;whiteSpace=wrap;html=1;rounded=0;fillColor=#60a917;strokeColor=#2D7600;fontColor=#ffffff;" parent="1" vertex="1">
          <mxGeometry x="440" y="860.52" width="79.48" height="79.48" as="geometry" />
        </mxCell>
        <mxCell id="1AZqCnQGpeGdDfHHl4o8-5" value="public.tags" style="swimlane;fontStyle=0;childLayout=stackLayout;horizontal=1;startSize=30;horizontalStack=0;resizeParent=1;resizeParentMax=0;resizeLast=0;collapsible=1;marginBottom=0;whiteSpace=wrap;html=1;fillColor=#1ba1e2;fontColor=#ffffff;strokeColor=#006EAF;" vertex="1" parent="1">
          <mxGeometry x="207.5" y="440" width="140" height="60" as="geometry" />
        </mxCell>
        <mxCell id="1AZqCnQGpeGdDfHHl4o8-6" value="name" style="text;strokeColor=none;fillColor=none;align=left;verticalAlign=middle;spacingLeft=4;spacingRight=4;overflow=hidden;points=[[0,0.5],[1,0.5]];portConstraint=eastwest;rotatable=0;whiteSpace=wrap;html=1;" vertex="1" parent="1AZqCnQGpeGdDfHHl4o8-5">
          <mxGeometry y="30" width="140" height="30" as="geometry" />
        </mxCell>
        <mxCell id="1AZqCnQGpeGdDfHHl4o8-9" value="public.admins" style="swimlane;fontStyle=0;childLayout=stackLayout;horizontal=1;startSize=30;horizontalStack=0;resizeParent=1;resizeParentMax=0;resizeLast=0;collapsible=1;marginBottom=0;whiteSpace=wrap;html=1;fillColor=#1ba1e2;fontColor=#ffffff;strokeColor=#006EAF;" vertex="1" parent="1">
          <mxGeometry x="243" y="60" width="175" height="120" as="geometry" />
        </mxCell>
        <mxCell id="1AZqCnQGpeGdDfHHl4o8-10" value="PK FK Unique uuid user_id" style="text;strokeColor=none;fillColor=none;align=left;verticalAlign=middle;spacingLeft=4;spacingRight=4;overflow=hidden;points=[[0,0.5],[1,0.5]];portConstraint=eastwest;rotatable=0;whiteSpace=wrap;html=1;" vertex="1" parent="1AZqCnQGpeGdDfHHl4o8-9">
          <mxGeometry y="30" width="175" height="30" as="geometry" />
        </mxCell>
        <mxCell id="1AZqCnQGpeGdDfHHl4o8-11" value="assigned_date:date" style="text;strokeColor=none;fillColor=none;align=left;verticalAlign=middle;spacingLeft=4;spacingRight=4;overflow=hidden;points=[[0,0.5],[1,0.5]];portConstraint=eastwest;rotatable=0;whiteSpace=wrap;html=1;" vertex="1" parent="1AZqCnQGpeGdDfHHl4o8-9">
          <mxGeometry y="60" width="175" height="30" as="geometry" />
        </mxCell>
        <mxCell id="1AZqCnQGpeGdDfHHl4o8-12" value="assigner_id:uuid?" style="text;strokeColor=none;fillColor=none;align=left;verticalAlign=middle;spacingLeft=4;spacingRight=4;overflow=hidden;points=[[0,0.5],[1,0.5]];portConstraint=eastwest;rotatable=0;whiteSpace=wrap;html=1;" vertex="1" parent="1AZqCnQGpeGdDfHHl4o8-9">
          <mxGeometry y="90" width="175" height="30" as="geometry" />
        </mxCell>
        <mxCell id="1AZqCnQGpeGdDfHHl4o8-17" value="auth.users" style="swimlane;fontStyle=0;childLayout=stackLayout;horizontal=1;startSize=30;horizontalStack=0;resizeParent=1;resizeParentMax=0;resizeLast=0;collapsible=1;marginBottom=0;whiteSpace=wrap;html=1;fillColor=#0050ef;fontColor=#ffffff;strokeColor=#001DBC;" vertex="1" parent="1">
          <mxGeometry x="10" y="120" width="140" height="60" as="geometry" />
        </mxCell>
        <mxCell id="1AZqCnQGpeGdDfHHl4o8-18" value="id" style="text;strokeColor=none;fillColor=none;align=left;verticalAlign=middle;spacingLeft=4;spacingRight=4;overflow=hidden;points=[[0,0.5],[1,0.5]];portConstraint=eastwest;rotatable=0;whiteSpace=wrap;html=1;" vertex="1" parent="1AZqCnQGpeGdDfHHl4o8-17">
          <mxGeometry y="30" width="140" height="30" as="geometry" />
        </mxCell>
        <mxCell id="1AZqCnQGpeGdDfHHl4o8-21" style="edgeStyle=orthogonalEdgeStyle;rounded=0;orthogonalLoop=1;jettySize=auto;html=1;exitX=1;exitY=0.5;exitDx=0;exitDy=0;entryX=0;entryY=0.5;entryDx=0;entryDy=0;fillColor=#0050ef;strokeColor=#001DBC;" edge="1" parent="1" source="1AZqCnQGpeGdDfHHl4o8-18" target="1AZqCnQGpeGdDfHHl4o8-10">
          <mxGeometry relative="1" as="geometry" />
        </mxCell>
        <mxCell id="1AZqCnQGpeGdDfHHl4o8-22" style="edgeStyle=orthogonalEdgeStyle;rounded=0;orthogonalLoop=1;jettySize=auto;html=1;exitX=1;exitY=0.5;exitDx=0;exitDy=0;entryX=0;entryY=0.5;entryDx=0;entryDy=0;fillColor=#0050ef;strokeColor=#001DBC;" edge="1" parent="1" source="1AZqCnQGpeGdDfHHl4o8-18" target="1AZqCnQGpeGdDfHHl4o8-14">
          <mxGeometry relative="1" as="geometry" />
        </mxCell>
        <mxCell id="1AZqCnQGpeGdDfHHl4o8-23" value="public.tier" style="swimlane;fontStyle=0;childLayout=stackLayout;horizontal=1;startSize=30;horizontalStack=0;resizeParent=1;resizeParentMax=0;resizeLast=0;collapsible=1;marginBottom=0;whiteSpace=wrap;html=1;fillColor=#a20025;fontColor=#ffffff;strokeColor=#6F0000;" vertex="1" parent="1">
          <mxGeometry x="32.5" y="290" width="140" height="120" as="geometry" />
        </mxCell>
        <mxCell id="1AZqCnQGpeGdDfHHl4o8-24" value="PK name:text" style="text;strokeColor=none;fillColor=none;align=left;verticalAlign=middle;spacingLeft=4;spacingRight=4;overflow=hidden;points=[[0,0.5],[1,0.5]];portConstraint=eastwest;rotatable=0;whiteSpace=wrap;html=1;" vertex="1" parent="1AZqCnQGpeGdDfHHl4o8-23">
          <mxGeometry y="30" width="140" height="30" as="geometry" />
        </mxCell>
        <mxCell id="1AZqCnQGpeGdDfHHl4o8-25" value="price:decimal" style="text;strokeColor=none;fillColor=none;align=left;verticalAlign=middle;spacingLeft=4;spacingRight=4;overflow=hidden;points=[[0,0.5],[1,0.5]];portConstraint=eastwest;rotatable=0;whiteSpace=wrap;html=1;" vertex="1" parent="1AZqCnQGpeGdDfHHl4o8-23">
          <mxGeometry y="60" width="140" height="30" as="geometry" />
        </mxCell>
        <mxCell id="1AZqCnQGpeGdDfHHl4o8-26" value="stripe_product_id:string" style="text;strokeColor=none;fillColor=none;align=left;verticalAlign=middle;spacingLeft=4;spacingRight=4;overflow=hidden;points=[[0,0.5],[1,0.5]];portConstraint=eastwest;rotatable=0;whiteSpace=wrap;html=1;" vertex="1" parent="1AZqCnQGpeGdDfHHl4o8-23">
          <mxGeometry y="90" width="140" height="30" as="geometry" />
        </mxCell>
        <mxCell id="1AZqCnQGpeGdDfHHl4o8-29" style="edgeStyle=orthogonalEdgeStyle;rounded=0;orthogonalLoop=1;jettySize=auto;html=1;exitX=1;exitY=0.5;exitDx=0;exitDy=0;entryX=0;entryY=0.5;entryDx=0;entryDy=0;fillColor=#a20025;strokeColor=#6F0000;" edge="1" parent="1" source="1AZqCnQGpeGdDfHHl4o8-24" target="1AZqCnQGpeGdDfHHl4o8-15">
          <mxGeometry relative="1" as="geometry" />
        </mxCell>
        <mxCell id="1AZqCnQGpeGdDfHHl4o8-34" value="public.galleries" style="swimlane;fontStyle=0;childLayout=stackLayout;horizontal=1;startSize=30;horizontalStack=0;resizeParent=1;resizeParentMax=0;resizeLast=0;collapsible=1;marginBottom=0;whiteSpace=wrap;html=1;fillColor=#1ba1e2;fontColor=#ffffff;strokeColor=#006EAF;" vertex="1" parent="1">
          <mxGeometry x="497.5" y="320" width="140" height="180" as="geometry" />
        </mxCell>
        <mxCell id="1AZqCnQGpeGdDfHHl4o8-35" value="PK string name" style="text;strokeColor=none;fillColor=none;align=left;verticalAlign=middle;spacingLeft=4;spacingRight=4;overflow=hidden;points=[[0,0.5],[1,0.5]];portConstraint=eastwest;rotatable=0;whiteSpace=wrap;html=1;" vertex="1" parent="1AZqCnQGpeGdDfHHl4o8-34">
          <mxGeometry y="30" width="140" height="30" as="geometry" />
        </mxCell>
        <mxCell id="1AZqCnQGpeGdDfHHl4o8-37" value="FK tier string" style="text;strokeColor=none;fillColor=none;align=left;verticalAlign=middle;spacingLeft=4;spacingRight=4;overflow=hidden;points=[[0,0.5],[1,0.5]];portConstraint=eastwest;rotatable=0;whiteSpace=wrap;html=1;" vertex="1" parent="1AZqCnQGpeGdDfHHl4o8-34">
          <mxGeometry y="60" width="140" height="30" as="geometry" />
        </mxCell>
        <mxCell id="1AZqCnQGpeGdDfHHl4o8-38" value="string thumbnail_file" style="text;strokeColor=none;fillColor=none;align=left;verticalAlign=middle;spacingLeft=4;spacingRight=4;overflow=hidden;points=[[0,0.5],[1,0.5]];portConstraint=eastwest;rotatable=0;whiteSpace=wrap;html=1;" vertex="1" parent="1AZqCnQGpeGdDfHHl4o8-34">
          <mxGeometry y="90" width="140" height="30" as="geometry" />
        </mxCell>
        <mxCell id="1AZqCnQGpeGdDfHHl4o8-41" value="bool nsfw" style="text;strokeColor=none;fillColor=none;align=left;verticalAlign=middle;spacingLeft=4;spacingRight=4;overflow=hidden;points=[[0,0.5],[1,0.5]];portConstraint=eastwest;rotatable=0;whiteSpace=wrap;html=1;" vertex="1" parent="1AZqCnQGpeGdDfHHl4o8-34">
          <mxGeometry y="120" width="140" height="30" as="geometry" />
        </mxCell>
        <mxCell id="1AZqCnQGpeGdDfHHl4o8-39" value="text[] tags" style="text;strokeColor=none;fillColor=none;align=left;verticalAlign=middle;spacingLeft=4;spacingRight=4;overflow=hidden;points=[[0,0.5],[1,0.5]];portConstraint=eastwest;rotatable=0;whiteSpace=wrap;html=1;" vertex="1" parent="1AZqCnQGpeGdDfHHl4o8-34">
          <mxGeometry y="150" width="140" height="30" as="geometry" />
        </mxCell>
        <mxCell id="1AZqCnQGpeGdDfHHl4o8-42" style="edgeStyle=orthogonalEdgeStyle;rounded=0;orthogonalLoop=1;jettySize=auto;html=1;exitX=1;exitY=0.5;exitDx=0;exitDy=0;entryX=0;entryY=0.5;entryDx=0;entryDy=0;fillColor=#a20025;strokeColor=#6F0000;" edge="1" parent="1" source="1AZqCnQGpeGdDfHHl4o8-24" target="1AZqCnQGpeGdDfHHl4o8-37">
          <mxGeometry relative="1" as="geometry">
            <Array as="points">
              <mxPoint x="207.5" y="335" />
              <mxPoint x="207.5" y="395" />
            </Array>
          </mxGeometry>
        </mxCell>
        <mxCell id="1AZqCnQGpeGdDfHHl4o8-43" value="public.skibs" style="swimlane;fontStyle=0;childLayout=stackLayout;horizontal=1;startSize=30;horizontalStack=0;resizeParent=1;resizeParentMax=0;resizeLast=0;collapsible=1;marginBottom=0;whiteSpace=wrap;html=1;fillColor=#1ba1e2;fontColor=#ffffff;strokeColor=#006EAF;" vertex="1" parent="1">
          <mxGeometry x="499.5" width="140" height="300" as="geometry" />
        </mxCell>
        <mxCell id="1AZqCnQGpeGdDfHHl4o8-44" value="PK AI id:&amp;nbsp;int8" style="text;strokeColor=none;fillColor=none;align=left;verticalAlign=middle;spacingLeft=4;spacingRight=4;overflow=hidden;points=[[0,0.5],[1,0.5]];portConstraint=eastwest;rotatable=0;whiteSpace=wrap;html=1;" vertex="1" parent="1AZqCnQGpeGdDfHHl4o8-43">
          <mxGeometry y="30" width="140" height="30" as="geometry" />
        </mxCell>
        <mxCell id="1AZqCnQGpeGdDfHHl4o8-46" value="amount:decimal" style="text;strokeColor=none;fillColor=none;align=left;verticalAlign=middle;spacingLeft=4;spacingRight=4;overflow=hidden;points=[[0,0.5],[1,0.5]];portConstraint=eastwest;rotatable=0;whiteSpace=wrap;html=1;" vertex="1" parent="1AZqCnQGpeGdDfHHl4o8-43">
          <mxGeometry y="60" width="140" height="30" as="geometry" />
        </mxCell>
        <mxCell id="1AZqCnQGpeGdDfHHl4o8-49" value="user_id:uuid" style="text;strokeColor=none;fillColor=none;align=left;verticalAlign=middle;spacingLeft=4;spacingRight=4;overflow=hidden;points=[[0,0.5],[1,0.5]];portConstraint=eastwest;rotatable=0;whiteSpace=wrap;html=1;" vertex="1" parent="1AZqCnQGpeGdDfHHl4o8-43">
          <mxGeometry y="90" width="140" height="30" as="geometry" />
        </mxCell>
        <mxCell id="1AZqCnQGpeGdDfHHl4o8-50" value="request_date:date" style="text;strokeColor=none;fillColor=none;align=left;verticalAlign=middle;spacingLeft=4;spacingRight=4;overflow=hidden;points=[[0,0.5],[1,0.5]];portConstraint=eastwest;rotatable=0;whiteSpace=wrap;html=1;" vertex="1" parent="1AZqCnQGpeGdDfHHl4o8-43">
          <mxGeometry y="120" width="140" height="30" as="geometry" />
        </mxCell>
        <mxCell id="1AZqCnQGpeGdDfHHl4o8-51" value="accepted:bool?" style="text;strokeColor=none;fillColor=none;align=left;verticalAlign=middle;spacingLeft=4;spacingRight=4;overflow=hidden;points=[[0,0.5],[1,0.5]];portConstraint=eastwest;rotatable=0;whiteSpace=wrap;html=1;" vertex="1" parent="1AZqCnQGpeGdDfHHl4o8-43">
          <mxGeometry y="150" width="140" height="30" as="geometry" />
        </mxCell>
        <mxCell id="1AZqCnQGpeGdDfHHl4o8-58" value="processed_date:date?" style="text;strokeColor=none;fillColor=none;align=left;verticalAlign=middle;spacingLeft=4;spacingRight=4;overflow=hidden;points=[[0,0.5],[1,0.5]];portConstraint=eastwest;rotatable=0;whiteSpace=wrap;html=1;" vertex="1" parent="1AZqCnQGpeGdDfHHl4o8-43">
          <mxGeometry y="180" width="140" height="30" as="geometry" />
        </mxCell>
        <mxCell id="1AZqCnQGpeGdDfHHl4o8-52" value="payment_url:string" style="text;strokeColor=none;fillColor=none;align=left;verticalAlign=middle;spacingLeft=4;spacingRight=4;overflow=hidden;points=[[0,0.5],[1,0.5]];portConstraint=eastwest;rotatable=0;whiteSpace=wrap;html=1;" vertex="1" parent="1AZqCnQGpeGdDfHHl4o8-43">
          <mxGeometry y="210" width="140" height="30" as="geometry" />
        </mxCell>
        <mxCell id="1AZqCnQGpeGdDfHHl4o8-57" value="paidDate:date?" style="text;strokeColor=none;fillColor=none;align=left;verticalAlign=middle;spacingLeft=4;spacingRight=4;overflow=hidden;points=[[0,0.5],[1,0.5]];portConstraint=eastwest;rotatable=0;whiteSpace=wrap;html=1;" vertex="1" parent="1AZqCnQGpeGdDfHHl4o8-43">
          <mxGeometry y="240" width="140" height="30" as="geometry" />
        </mxCell>
        <mxCell id="1AZqCnQGpeGdDfHHl4o8-59" value="completedDate:date?" style="text;strokeColor=none;fillColor=none;align=left;verticalAlign=middle;spacingLeft=4;spacingRight=4;overflow=hidden;points=[[0,0.5],[1,0.5]];portConstraint=eastwest;rotatable=0;whiteSpace=wrap;html=1;" vertex="1" parent="1AZqCnQGpeGdDfHHl4o8-43">
          <mxGeometry y="270" width="140" height="30" as="geometry" />
        </mxCell>
        <mxCell id="1AZqCnQGpeGdDfHHl4o8-48" style="edgeStyle=orthogonalEdgeStyle;rounded=0;orthogonalLoop=1;jettySize=auto;html=1;exitX=1;exitY=0.5;exitDx=0;exitDy=0;entryX=0;entryY=0.5;entryDx=0;entryDy=0;dashed=1;startArrow=classic;startFill=1;fillColor=#1ba1e2;strokeColor=#006EAF;" edge="1" parent="1" source="1AZqCnQGpeGdDfHHl4o8-6" target="1AZqCnQGpeGdDfHHl4o8-39">
          <mxGeometry relative="1" as="geometry" />
        </mxCell>
        <mxCell id="1AZqCnQGpeGdDfHHl4o8-56" value="No FK Relationship" style="edgeLabel;html=1;align=center;verticalAlign=middle;resizable=0;points=[];fontColor=#FFFFFF;labelBackgroundColor=none;" vertex="1" connectable="0" parent="1AZqCnQGpeGdDfHHl4o8-48">
          <mxGeometry x="-0.0082" y="2" relative="1" as="geometry">
            <mxPoint as="offset" />
          </mxGeometry>
        </mxCell>
        <mxCell id="1AZqCnQGpeGdDfHHl4o8-13" value="public.user_subscriptions" style="swimlane;fontStyle=0;childLayout=stackLayout;horizontal=1;startSize=30;horizontalStack=0;resizeParent=1;resizeParentMax=0;resizeLast=0;collapsible=1;marginBottom=0;whiteSpace=wrap;html=1;fillColor=#1ba1e2;fontColor=#ffffff;strokeColor=#006EAF;" vertex="1" parent="1">
          <mxGeometry x="243" y="203" width="175" height="180" as="geometry" />
        </mxCell>
        <mxCell id="1AZqCnQGpeGdDfHHl4o8-14" value="PK FK Unique user_id:uuid" style="text;strokeColor=none;fillColor=none;align=left;verticalAlign=middle;spacingLeft=4;spacingRight=4;overflow=hidden;points=[[0,0.5],[1,0.5]];portConstraint=eastwest;rotatable=0;whiteSpace=wrap;html=1;" vertex="1" parent="1AZqCnQGpeGdDfHHl4o8-13">
          <mxGeometry y="30" width="175" height="30" as="geometry" />
        </mxCell>
        <mxCell id="1AZqCnQGpeGdDfHHl4o8-15" value="FK tier:text" style="text;strokeColor=none;fillColor=none;align=left;verticalAlign=middle;spacingLeft=4;spacingRight=4;overflow=hidden;points=[[0,0.5],[1,0.5]];portConstraint=eastwest;rotatable=0;whiteSpace=wrap;html=1;" vertex="1" parent="1AZqCnQGpeGdDfHHl4o8-13">
          <mxGeometry y="60" width="175" height="30" as="geometry" />
        </mxCell>
        <mxCell id="1AZqCnQGpeGdDfHHl4o8-54" value="active:bool" style="text;strokeColor=none;fillColor=none;align=left;verticalAlign=middle;spacingLeft=4;spacingRight=4;overflow=hidden;points=[[0,0.5],[1,0.5]];portConstraint=eastwest;rotatable=0;whiteSpace=wrap;html=1;" vertex="1" parent="1AZqCnQGpeGdDfHHl4o8-13">
          <mxGeometry y="90" width="175" height="30" as="geometry" />
        </mxCell>
        <mxCell id="1AZqCnQGpeGdDfHHl4o8-53" value="last_paid_date:date" style="text;strokeColor=none;fillColor=none;align=left;verticalAlign=middle;spacingLeft=4;spacingRight=4;overflow=hidden;points=[[0,0.5],[1,0.5]];portConstraint=eastwest;rotatable=0;whiteSpace=wrap;html=1;" vertex="1" parent="1AZqCnQGpeGdDfHHl4o8-13">
          <mxGeometry y="120" width="175" height="30" as="geometry" />
        </mxCell>
        <mxCell id="1AZqCnQGpeGdDfHHl4o8-47" value="start_date:date" style="text;strokeColor=none;fillColor=none;align=left;verticalAlign=middle;spacingLeft=4;spacingRight=4;overflow=hidden;points=[[0,0.5],[1,0.5]];portConstraint=eastwest;rotatable=0;whiteSpace=wrap;html=1;" vertex="1" parent="1AZqCnQGpeGdDfHHl4o8-13">
          <mxGeometry y="150" width="175" height="30" as="geometry" />
        </mxCell>
        <mxCell id="1AZqCnQGpeGdDfHHl4o8-55" style="edgeStyle=orthogonalEdgeStyle;rounded=0;orthogonalLoop=1;jettySize=auto;html=1;exitX=1;exitY=0.5;exitDx=0;exitDy=0;entryX=0;entryY=0.5;entryDx=0;entryDy=0;fillColor=#0050ef;strokeColor=#001DBC;" edge="1" parent="1" source="1AZqCnQGpeGdDfHHl4o8-18" target="1AZqCnQGpeGdDfHHl4o8-49">
          <mxGeometry relative="1" as="geometry">
            <Array as="points">
              <mxPoint x="197.5" y="165" />
              <mxPoint x="197.5" y="30" />
              <mxPoint x="447.5" y="30" />
              <mxPoint x="447.5" y="105" />
            </Array>
          </mxGeometry>
        </mxCell>
        <mxCell id="1AZqCnQGpeGdDfHHl4o8-60" value="public.commissions" style="swimlane;fontStyle=0;childLayout=stackLayout;horizontal=1;startSize=30;horizontalStack=0;resizeParent=1;resizeParentMax=0;resizeLast=0;collapsible=1;marginBottom=0;whiteSpace=wrap;html=1;fillColor=#1ba1e2;fontColor=#ffffff;strokeColor=#006EAF;" vertex="1" parent="1">
          <mxGeometry x="697.5" y="30" width="170" height="330" as="geometry" />
        </mxCell>
        <mxCell id="1AZqCnQGpeGdDfHHl4o8-61" value="PK AI id:&amp;nbsp;int8" style="text;strokeColor=none;fillColor=none;align=left;verticalAlign=middle;spacingLeft=4;spacingRight=4;overflow=hidden;points=[[0,0.5],[1,0.5]];portConstraint=eastwest;rotatable=0;whiteSpace=wrap;html=1;" vertex="1" parent="1AZqCnQGpeGdDfHHl4o8-60">
          <mxGeometry y="30" width="170" height="30" as="geometry" />
        </mxCell>
        <mxCell id="1AZqCnQGpeGdDfHHl4o8-62" value="amount:decimal" style="text;strokeColor=none;fillColor=none;align=left;verticalAlign=middle;spacingLeft=4;spacingRight=4;overflow=hidden;points=[[0,0.5],[1,0.5]];portConstraint=eastwest;rotatable=0;whiteSpace=wrap;html=1;" vertex="1" parent="1AZqCnQGpeGdDfHHl4o8-60">
          <mxGeometry y="60" width="170" height="30" as="geometry" />
        </mxCell>
        <mxCell id="1AZqCnQGpeGdDfHHl4o8-63" value="user_id:uuid" style="text;strokeColor=none;fillColor=none;align=left;verticalAlign=middle;spacingLeft=4;spacingRight=4;overflow=hidden;points=[[0,0.5],[1,0.5]];portConstraint=eastwest;rotatable=0;whiteSpace=wrap;html=1;" vertex="1" parent="1AZqCnQGpeGdDfHHl4o8-60">
          <mxGeometry y="90" width="170" height="30" as="geometry" />
        </mxCell>
        <mxCell id="1AZqCnQGpeGdDfHHl4o8-64" value="request_date:date" style="text;strokeColor=none;fillColor=none;align=left;verticalAlign=middle;spacingLeft=4;spacingRight=4;overflow=hidden;points=[[0,0.5],[1,0.5]];portConstraint=eastwest;rotatable=0;whiteSpace=wrap;html=1;" vertex="1" parent="1AZqCnQGpeGdDfHHl4o8-60">
          <mxGeometry y="120" width="170" height="30" as="geometry" />
        </mxCell>
        <mxCell id="1AZqCnQGpeGdDfHHl4o8-65" value="accepted:bool?" style="text;strokeColor=none;fillColor=none;align=left;verticalAlign=middle;spacingLeft=4;spacingRight=4;overflow=hidden;points=[[0,0.5],[1,0.5]];portConstraint=eastwest;rotatable=0;whiteSpace=wrap;html=1;" vertex="1" parent="1AZqCnQGpeGdDfHHl4o8-60">
          <mxGeometry y="150" width="170" height="30" as="geometry" />
        </mxCell>
        <mxCell id="1AZqCnQGpeGdDfHHl4o8-66" value="processed_date:date?" style="text;strokeColor=none;fillColor=none;align=left;verticalAlign=middle;spacingLeft=4;spacingRight=4;overflow=hidden;points=[[0,0.5],[1,0.5]];portConstraint=eastwest;rotatable=0;whiteSpace=wrap;html=1;" vertex="1" parent="1AZqCnQGpeGdDfHHl4o8-60">
          <mxGeometry y="180" width="170" height="30" as="geometry" />
        </mxCell>
        <mxCell id="1AZqCnQGpeGdDfHHl4o8-67" value="hours:number" style="text;strokeColor=none;fillColor=none;align=left;verticalAlign=middle;spacingLeft=4;spacingRight=4;overflow=hidden;points=[[0,0.5],[1,0.5]];portConstraint=eastwest;rotatable=0;whiteSpace=wrap;html=1;" vertex="1" parent="1AZqCnQGpeGdDfHHl4o8-60">
          <mxGeometry y="210" width="170" height="30" as="geometry" />
        </mxCell>
        <mxCell id="1AZqCnQGpeGdDfHHl4o8-70" value="pending_approval:bool false" style="text;strokeColor=none;fillColor=none;align=left;verticalAlign=middle;spacingLeft=4;spacingRight=4;overflow=hidden;points=[[0,0.5],[1,0.5]];portConstraint=eastwest;rotatable=0;whiteSpace=wrap;html=1;" vertex="1" parent="1AZqCnQGpeGdDfHHl4o8-60">
          <mxGeometry y="240" width="170" height="30" as="geometry" />
        </mxCell>
        <mxCell id="1AZqCnQGpeGdDfHHl4o8-68" value="paidDate:date?" style="text;strokeColor=none;fillColor=none;align=left;verticalAlign=middle;spacingLeft=4;spacingRight=4;overflow=hidden;points=[[0,0.5],[1,0.5]];portConstraint=eastwest;rotatable=0;whiteSpace=wrap;html=1;" vertex="1" parent="1AZqCnQGpeGdDfHHl4o8-60">
          <mxGeometry y="270" width="170" height="30" as="geometry" />
        </mxCell>
        <mxCell id="1AZqCnQGpeGdDfHHl4o8-69" value="completedDate:date?" style="text;strokeColor=none;fillColor=none;align=left;verticalAlign=middle;spacingLeft=4;spacingRight=4;overflow=hidden;points=[[0,0.5],[1,0.5]];portConstraint=eastwest;rotatable=0;whiteSpace=wrap;html=1;" vertex="1" parent="1AZqCnQGpeGdDfHHl4o8-60">
          <mxGeometry y="300" width="170" height="30" as="geometry" />
        </mxCell>
        <mxCell id="1AZqCnQGpeGdDfHHl4o8-71" value="public.comission_messages" style="swimlane;fontStyle=0;childLayout=stackLayout;horizontal=1;startSize=30;horizontalStack=0;resizeParent=1;resizeParentMax=0;resizeLast=0;collapsible=1;marginBottom=0;whiteSpace=wrap;html=1;fillColor=#1ba1e2;fontColor=#ffffff;strokeColor=#006EAF;" vertex="1" parent="1">
          <mxGeometry x="957.5" y="180" width="210" height="120" as="geometry" />
        </mxCell>
        <mxCell id="1AZqCnQGpeGdDfHHl4o8-72" value="PK AI id:int8" style="text;strokeColor=none;fillColor=none;align=left;verticalAlign=middle;spacingLeft=4;spacingRight=4;overflow=hidden;points=[[0,0.5],[1,0.5]];portConstraint=eastwest;rotatable=0;whiteSpace=wrap;html=1;" vertex="1" parent="1AZqCnQGpeGdDfHHl4o8-71">
          <mxGeometry y="30" width="210" height="30" as="geometry" />
        </mxCell>
        <mxCell id="1AZqCnQGpeGdDfHHl4o8-73" value="FK comission_id:int8" style="text;strokeColor=none;fillColor=none;align=left;verticalAlign=middle;spacingLeft=4;spacingRight=4;overflow=hidden;points=[[0,0.5],[1,0.5]];portConstraint=eastwest;rotatable=0;whiteSpace=wrap;html=1;" vertex="1" parent="1AZqCnQGpeGdDfHHl4o8-71">
          <mxGeometry y="60" width="210" height="30" as="geometry" />
        </mxCell>
        <mxCell id="1AZqCnQGpeGdDfHHl4o8-74" value="FK sender_id:uuid" style="text;strokeColor=none;fillColor=none;align=left;verticalAlign=middle;spacingLeft=4;spacingRight=4;overflow=hidden;points=[[0,0.5],[1,0.5]];portConstraint=eastwest;rotatable=0;whiteSpace=wrap;html=1;" vertex="1" parent="1AZqCnQGpeGdDfHHl4o8-71">
          <mxGeometry y="90" width="210" height="30" as="geometry" />
        </mxCell>
        <mxCell id="1AZqCnQGpeGdDfHHl4o8-79" style="edgeStyle=orthogonalEdgeStyle;rounded=0;orthogonalLoop=1;jettySize=auto;html=1;exitX=1;exitY=0.5;exitDx=0;exitDy=0;entryX=0;entryY=0.5;entryDx=0;entryDy=0;fillColor=#0050ef;strokeColor=#001DBC;" edge="1" parent="1" source="1AZqCnQGpeGdDfHHl4o8-18" target="1AZqCnQGpeGdDfHHl4o8-63">
          <mxGeometry relative="1" as="geometry">
            <Array as="points">
              <mxPoint x="197.5" y="165" />
              <mxPoint x="197.5" y="30" />
              <mxPoint x="447.5" y="30" />
              <mxPoint x="447.5" y="-30" />
              <mxPoint x="667.5" y="-30" />
              <mxPoint x="667.5" y="135" />
            </Array>
          </mxGeometry>
        </mxCell>
        <mxCell id="1AZqCnQGpeGdDfHHl4o8-80" style="edgeStyle=orthogonalEdgeStyle;rounded=0;orthogonalLoop=1;jettySize=auto;html=1;exitX=1;exitY=0.5;exitDx=0;exitDy=0;entryX=0;entryY=0.5;entryDx=0;entryDy=0;fillColor=#1ba1e2;strokeColor=#006EAF;" edge="1" parent="1" source="1AZqCnQGpeGdDfHHl4o8-61" target="1AZqCnQGpeGdDfHHl4o8-73">
          <mxGeometry relative="1" as="geometry" />
        </mxCell>
        <mxCell id="1AZqCnQGpeGdDfHHl4o8-81" style="edgeStyle=orthogonalEdgeStyle;rounded=0;orthogonalLoop=1;jettySize=auto;html=1;exitX=1;exitY=0.5;exitDx=0;exitDy=0;entryX=0;entryY=0.5;entryDx=0;entryDy=0;fillColor=#0050ef;strokeColor=#001DBC;" edge="1" parent="1" source="1AZqCnQGpeGdDfHHl4o8-18" target="1AZqCnQGpeGdDfHHl4o8-74">
          <mxGeometry relative="1" as="geometry">
            <Array as="points">
              <mxPoint x="197.5" y="165" />
              <mxPoint x="197.5" y="30" />
              <mxPoint x="447.5" y="30" />
              <mxPoint x="447.5" y="-30" />
              <mxPoint x="667.5" y="-30" />
              <mxPoint x="667.5" y="400" />
              <mxPoint x="897.5" y="400" />
              <mxPoint x="897.5" y="285" />
            </Array>
          </mxGeometry>
        </mxCell>
      </root>
    </mxGraphModel>
  </diagram>
</mxfile>
